# xmcd
#
# Track frame offsets:
#	182
#	16317
#	25830
#	40440
#	62325
#	77725
#	90422
#	107097
#	121970
#	138395
#	161145
#	176565
#
# Disc length: 2566
#
# Revision: 3
# Processed by: cddbd v1.5.1PL0 Copyright (c) Steve Scherf et al.
# Submitted via: CDValet v3.31 - Copyright (c) 1997 Greg Leichner
# Normalized: r2:DSETVAR1
#
DISCID=920a040c
DTITLE=Various Artist - Soul Hits of the '70s--Didn't It Blow Your Mind! Vol. 6
DYEAR=1900
DGENRE=
TTITLE0=Dramatics - Whatcha See Is Whatcha Get
TTITLE1=Bill Withers - Ain't No Sunshine
TTITLE2=Laura Lee - Women's Love Rights
TTITLE3=Dells - The Love We Had (Stays on My Mind)
TTITLE4=Persuaders - Thin Line Between Love and Hate
TTITLE5=The 8th Day - You've Got to Crawl (Before You Walk)
TTITLE6=Free Movement - I've Found Someone of My Own
TTITLE7=Isaac Hayes - Theme from Shaft
TTITLE8=Lou Rawls - A Natural Man
TTITLE9=Chi Lites - Have You Seen Her
TTITLE10=Donnie Elbert - Where Did Our Love Go
TTITLE11=Staple Singers - Respect Yourself
EXTD=
EXTT0=The Dramatics
EXTT1=Bill Withers
EXTT2=Laura Lee
EXTT3=The Dells
EXTT4=The Persuaders
EXTT5=The 8th Day
EXTT6=The Free Movement
EXTT7=Issac Hayes
EXTT8=Lou Rawls
EXTT9=The Chi-Lites
EXTT10=Donnie Elbert
EXTT11=The Staple Singers
PLAYORDER=
